<svg width="31" height="31" viewBox="0 0 31 31" fill="none" xmlns="http://www.w3.org/2000/svg">
<path d="M24.8 24.8C23.0795 24.8 21.7 26.1795 21.7 27.9C21.7 28.7222 22.0266 29.5107 22.608 30.092C23.1893 30.6734 23.9778 31 24.8 31C25.6222 31 26.4107 30.6734 26.992 30.092C27.5734 29.5107 27.9 28.7222 27.9 27.9C27.9 27.0778 27.5734 26.2893 26.992 25.708C26.4107 25.1266 25.6222 24.8 24.8 24.8ZM0 0V3.1H3.1L8.68 14.8645L6.572 18.662C6.3395 19.096 6.2 19.6075 6.2 20.15C6.2 20.9722 6.52661 21.7607 7.10797 22.342C7.68933 22.9234 8.47783 23.25 9.3 23.25H27.9V20.15H9.951C9.84823 20.15 9.74967 20.1092 9.677 20.0365C9.60433 19.9638 9.5635 19.8653 9.5635 19.7625C9.5635 19.685 9.579 19.623 9.61 19.5765L11.005 17.05H22.5525C23.715 17.05 24.738 16.399 25.265 15.4535L30.814 5.425C30.9225 5.177 31 4.9135 31 4.65C31 4.23891 30.8367 3.84467 30.546 3.55398C30.2553 3.2633 29.8611 3.1 29.45 3.1H6.5255L5.0685 0M9.3 24.8C7.5795 24.8 6.2 26.1795 6.2 27.9C6.2 28.7222 6.52661 29.5107 7.10797 30.092C7.68933 30.6734 8.47783 31 9.3 31C10.1222 31 10.9107 30.6734 11.492 30.092C12.0734 29.5107 12.4 28.7222 12.4 27.9C12.4 27.0778 12.0734 26.2893 11.492 25.708C10.9107 25.1266 10.1222 24.8 9.3 24.8Z" fill="white"/>
</svg>
